<?xml version="1.0" encoding="UTF-8"?>
<svg width="890px" height="515px" viewBox="0 0 890 515" version="1.1" xmlns="http://www.w3.org/2000/svg" xmlns:xlink="http://www.w3.org/1999/xlink">
    <!-- Generator: Sketch 62 (91390) - https://sketch.com -->
    <title>ESX Logo</title>
    <desc>Created with Sketch.</desc>
    <g id="Page-1" stroke="none" stroke-width="1" fill="none" fill-rule="evenodd">
        <g id="ESX-Logo">
            <path d="M45.515945,130.827843 C45.0346822,131.296426 44.8281572,132.132593 44.8963701,133.336344 L44.8963701,193.057009 L57.152227,193.057009 L57.152227,133.345983 C57.1354742,132.320156 56.9388002,131.54436 56.5622051,131.018595 C56.1856101,130.49283 55.3671285,130.258538 54.1067604,130.31572 L47.6870787,130.31572 C46.720919,130.188553 45.9972078,130.35926 45.515945,130.827843 Z" id="E-accent-line" fill="#0099FF"></path>
            <path d="M0,193.057009 L0,499.500894 C0,500.843125 0.577208495,501.970638 1.73162549,502.883431 C3.0413104,503.373982 4.62490579,503.532228 6.48241165,503.358169 L259.416072,503.358169 C262.41019,503.228023 264.208756,502.775331 264.81177,502.000091 C265.414784,501.224852 265.758935,499.743082 265.844224,497.554781 L265.844224,442.813356 C265.824594,440.596174 265.235935,438.885838 264.078247,437.682347 C262.920559,436.478856 261.366501,435.962375 259.416072,436.132904 L98.5780284,436.132904 C97.0138546,436.166846 95.9251399,435.914517 95.3118842,435.375916 C94.6986286,434.837315 94.3591784,433.835337 94.2935337,432.369982 L94.2935337,383.414519 C94.1905937,382.168208 94.5300439,381.172379 95.3118842,380.427032 C96.0937246,379.681686 97.1747679,379.323325 98.5550142,379.35195 L249.890105,379.35195 C251.136595,379.352896 252.073155,379.001088 252.699785,378.296529 C253.326415,377.591969 253.66691,376.507902 253.72127,375.044327 L253.72127,315.632055 C253.816306,314.260553 253.475811,313.188394 252.699785,312.415576 C251.535747,311.25635 250.829328,311.322447 249.398491,311.327146 C161.515466,311.615774 108.481161,311.610997 96.7256998,311.312815 C93.9989214,311.243649 94.5053486,311.406807 93.3189827,311.312815 C91.8679165,311.197852 91.26373,309.431847 91.506423,306.014802 L91.506423,196.830389 C91.506423,194.314802 90.5635299,193.057009 88.6777438,193.057009 C86.7919576,193.057009 57.2327097,193.057009 0,193.057009 Z" id="letter-E" fill="#0099FF"></path>
            <path d="M146.593127,130.908833 C146.315742,131.380215 146.222797,132.102517 146.314291,133.075739 L146.314291,270.631289 C146.229547,271.872174 146.453885,272.707765 146.987306,273.138062 C147.520727,273.568359 148.398949,273.783508 149.621973,273.783508 L154.748091,273.783508 C156.020638,273.76358 156.837923,273.548431 157.199946,273.138062 C157.56197,272.727693 157.723349,271.84134 157.684086,270.479002 L157.684086,133.072524 C157.754987,132.078215 157.593607,131.356985 157.199946,130.908833 C156.806286,130.460682 156.070304,130.262977 154.992002,130.31572 L148.960202,130.31572 C147.659537,130.239747 146.870512,130.437451 146.593127,130.908833 Z" id="near-rect-accent-line" fill="#FF9E3E"></path>
            <path d="M111.174522,158.567598 C110.090035,159.631155 109.679001,161.403746 109.941421,163.885371 L109.941421,240.442514 C110.019254,242.339284 110.430288,243.700247 111.174522,244.525404 C111.918757,245.35056 113.035439,245.683425 114.52457,245.523998 L188.528584,245.523998 C190.277372,245.730674 191.579236,245.397809 192.434174,244.525404 C193.716581,243.216796 193.738779,241.949958 193.738779,240.207357 C193.738779,191.000611 193.738779,165.406288 193.738779,163.42439 C193.738779,160.346262 194.054277,160.159665 192.434174,158.567598 C191.354105,157.50622 189.700751,157.073065 187.474113,157.268134 L116.688881,157.268134 C114.097129,157.070886 112.25901,157.504041 111.174522,158.567598 Z" id="Floating-Rect-(near)" fill="#FF9E3E"></path>
            <path d="M248.323659,0.77284972 C247.963644,1.28716899 247.759125,2.07063651 247.710102,3.12325229 L247.710102,244.464332 C247.544495,246.508087 247.927521,247.775652 248.859179,248.267027 C249.790838,248.758403 250.89059,249.004091 252.158437,249.004091 L260.664617,249.004091 C262.037749,248.91865 263.076482,248.672962 263.780814,248.267027 C264.485146,247.861093 264.814996,246.593528 264.770364,244.464332 L265.455213,3.3973371 C265.505558,2.1846113 265.272976,1.30978217 264.757467,0.77284972 C264.241958,0.235917266 263.58843,-0.0216993072 262.796883,2.84217094e-14 L250.256667,2.84217094e-14 C249.32801,2.84217094e-14 248.683674,0.257616573 248.323659,0.77284972 Z" id="far-rect-accent-line" fill="#FF9E3E"></path>
            <path d="M212.016926,57.8009495 C211.242945,58.5395153 210.940515,60.0978077 211.109634,62.4758269 L211.109634,187.43633 C211.109634,189.86458 211.591964,191.491633 212.556626,192.317487 C212.988225,192.686983 213.589022,192.919456 214.160587,193.057009 C214.631206,193.170268 215.410817,193.170268 216.499419,193.057009 L293.880721,193.057009 C295.99933,192.959297 297.457868,192.510591 298.256334,191.710892 C299.0548,190.911193 299.617844,189.335195 299.945466,186.982899 L299.945466,62.9188942 C299.945466,61.1837635 299.382422,59.8042525 298.256334,58.7803613 C297.102459,57.3901296 295.484789,56.6950138 293.403323,56.6950138 L217.166611,56.6950138 C214.507469,56.6937385 212.790907,57.0623838 212.016926,57.8009495 Z" id="Floating-Rect-(far)" fill="#FF9E3E"></path>
            <path d="M561.52121,271.779085 C556.525782,257.790822 552.490999,247.861439 549.416861,241.990935 C544.805655,233.185178 541.891669,229.231781 536.047171,222.140625 C530.202673,215.049469 526.819831,212.327359 516.400837,205.510641 C505.268702,198.812055 498.005437,197.745057 488.858495,195.057009 C479.711553,192.36896 475.53355,191.057009 461.249138,190.103448 C446.964726,189.149887 430.778547,188.282927 418.686886,188.282927 C406.595226,188.282927 401.215091,188.972064 387.419984,191.057009 C373.624877,193.141953 372.041968,194.141953 360.351529,198.745057 C348.66109,203.348161 345.804498,204.286621 331.577848,215.671171 C318.143663,227.412313 315.510534,233.425598 310.879119,242.390896 C305.70948,252.398065 302.599968,263.769548 302.599968,276.367032 C302.599968,289.549793 304.09431,294.707076 305.59542,301.433973 C307.096531,308.16087 308.561436,312.161347 314.9511,322.041959 C319.549238,329.152258 325.424821,335.279895 332.577848,340.424869 C337.777557,345.428673 345.028731,350.368055 354.331372,355.243016 C368.285334,362.555457 369.573878,362.555457 380.349277,366.464901 C391.124677,370.374344 391.572077,370.532372 401.899507,372.618684 C412.226937,374.704996 415.477404,374.704996 427.884972,376.63189 C440.29254,378.558784 446.695991,379.98317 455.343216,383.203511 C464.033757,386.439984 466.037515,387.867774 472.050316,392.740125 C478.063118,398.751983 479.039691,402.780606 480.622234,409.790105 C482.114877,416.401412 480.862212,423.566139 479.39443,427.186972 C475.760428,436.151597 472.749643,439.919247 463.249138,446.09752 C453.748632,452.275792 442.527334,452.677085 432.522585,452.275792 C422.517836,451.8745 416.799069,450.362561 409.06005,446.09752 C401.32103,441.832478 396.850552,437.496718 393.775718,431.729158 C391.725828,427.884119 390.234325,422.782846 389.301207,416.425339 L295.554734,416.425339 C297.240775,431.340842 299.589186,442.548508 302.599968,450.048338 C307.116141,461.298081 311.367394,465.634236 314.9511,470.367104 C318.585987,475.167567 328.04368,485.748827 337.406506,492.052965 C349.459139,500.168191 354.331372,504.808328 373.624877,508.672017 C392.918382,512.535706 398.73567,513.98849 414.327002,514.403944 C418.304711,514.509936 424.872631,514.509936 434.030761,514.403944 C450.584644,513.762718 462.264178,512.923325 469.069364,511.885767 C478.433892,510.457998 487.43395,508.161209 494.104547,506.4976 C505.992727,503.532755 510.844844,500.561672 516.400837,497.996729 C520.61853,496.049616 522.371301,495.074963 541.891669,479.073451 C551.494204,471.201926 553.523642,467.768043 555.8391,464.483168 C558.230587,461.090434 560.602473,456.661843 566.099704,445.09752 C571.608254,433.509384 574.879894,425.862017 575.630872,416.425339 C576.381849,406.98866 576.381849,403.270227 574.630872,390.697068 C571.790816,370.303617 566.099704,358.09775 550.934594,342.631875 C536.557106,328.820393 528.721659,325.136174 504.058045,315.823142 C479.39443,306.51011 472.050316,305.055189 451.748632,301.433973 C431.446948,297.812757 419.615276,297.048194 413.01021,294.94921 C406.405144,292.850226 399.546225,292.769175 392.106895,281.11843 C388.301207,272.779085 390.489225,264.565278 391.29806,261.153923 C392.106895,257.742569 393.93221,254.863917 397.589271,251.690569 C401.246332,248.517222 404.722356,245.945091 409.06005,244.523998 C417.921097,241.620988 421.900043,241.767403 431.610833,241.990935 C441.321623,242.214466 450.063077,244.980284 456.370741,249.069567 C462.678406,253.15885 462.883418,254.257575 466.380548,259.201546 C468.711968,262.497526 470.601891,266.690039 472.050316,271.779085 L561.52121,271.779085 Z" id="letter-S" fill="#EAEAEA"></path>
            <path d="M570.263417,195.545651 C569.503602,196.295803 569.503602,197.822173 570.263417,200.12476 L661.311455,336.860683 L662.275956,343.76424 L659.249332,350.10474 L561.623327,495.982663 C560.337919,498.538201 559.94673,500.387748 560.449759,501.531302 C560.952789,502.674856 562.424535,503.281777 564.864997,503.352064 L659.249332,502.497167 L716.179591,413.752939 C717.575658,411.85159 718.739741,410.507461 719.67184,409.720554 C721.069989,408.540192 725.232815,407.971191 726.337624,408.255692 C727.442432,408.540192 726.841725,408.255692 729.108208,409.357365 C731.381064,410.845878 731.381064,410.845878 732.928513,413.752939 C733.960146,415.690981 752.161969,445.582183 787.533982,503.426548 L886.067658,503.426548 C887.720431,503.311502 888.701169,502.679754 889.009873,501.531302 C889.318577,500.382851 888.870959,499.03126 887.667021,497.476529 L787.533982,343.76424 L879.758755,199.663835 C880.405298,198.337059 880.211296,197.193247 879.176748,196.232398 C878.142201,195.27155 876.935234,194.816775 875.555846,194.868074 L784.31468,194.868074 C750.987652,253.148101 733.492222,282.764416 731.828389,283.717017 C729.33264,285.14592 728.763878,285.14592 725.402512,285.14592 C722.041146,285.14592 720.403745,284.159763 718.67184,282.717017 C717.517237,281.755187 700.924836,252.472206 668.894637,194.868074 L575.587814,194.868074 C572.798031,194.569639 571.023232,194.795498 570.263417,195.545651 Z" id="letter-X" fill="#EAEAEA"></path>
        </g>
    </g>
</svg>